<?xml version="1.0" encoding="iso-8859-1"?>
<!-- Generator: Adobe Illustrator 19.0.0, SVG Export Plug-In . SVG Version: 6.00 Build 0)  -->
<svg version="1.1" id="Capa_1" xmlns="http://www.w3.org/2000/svg" xmlns:xlink="http://www.w3.org/1999/xlink" x="0px" y="0px"
	 viewBox="0 0 512 512" style="enable-background:new 0 0 512 512;" xml:space="preserve">
<g>
	<polygon style="fill:#0050C3;" points="321.277,112.251 64.116,71.859 0,135.975 213.807,219.72 	"/>
	<polygon style="fill:#0050C3;" points="294.09,298.033 377.634,511.327 441.75,447.211 401.455,190.667 	"/>
</g>
<polygon style="fill:#00317E;" points="294.09,298.033 377.634,511.327 441.75,447.211 401.455,190.667 "/>
<path style="fill:#D3D0F3;" d="M221.605,465.734l5.592-95.472L477.61,119.848c9.531-9.531,20.945-29.456,27.755-48.451
	c9.9-27.617,8.703-48.643-3.459-60.806C489.743-1.57,468.721-2.767,441.099,7.133c-18.995,6.81-38.919,18.222-48.451,27.754
	L142.236,285.3l-95.472,5.591L0.985,336.669l117.846,56.865l57.006,117.969L221.605,465.734z"/>
<path style="fill:#B9B6EC;" d="M118.981,393.843l56.856,117.659l45.768-45.769l5.592-95.472L477.61,119.848
	c9.531-9.531,20.945-29.456,27.755-48.451c9.855-27.492,8.71-48.45-3.299-60.637L118.981,393.843z"/>
<rect x="109.963" y="332.64" transform="matrix(-0.7071 -0.7071 0.7071 -0.7071 -60.6495 749.8878)" style="fill:#0050C3;" width="30.038" height="109.73"/>
<rect x="75.509" y="385.511" transform="matrix(-0.7071 0.7071 -0.7071 -0.7071 500.3872 578.541)" style="fill:#00317E;" width="109.73" height="14.787"/>
<g>
</g>
<g>
</g>
<g>
</g>
<g>
</g>
<g>
</g>
<g>
</g>
<g>
</g>
<g>
</g>
<g>
</g>
<g>
</g>
<g>
</g>
<g>
</g>
<g>
</g>
<g>
</g>
<g>
</g>
</svg>
